#tb 0: 1/25
0,          0,          0,        1,   301312, 6912d70f7c20db0b5079a99443ffe65c
0,          1,          1,        1,   301328, 53f1b7d3c2f87ecfe9c9d305771421c5
0,          2,          2,        1,   301100, 7040f2b50dc10b2565fa899ba007983d
0,          3,          3,        1,   301164, 2bfe87a43842b21b083c166a5fcae979
0,          4,          4,        1,   301172, e6535559b9cafb81d0f5312e6982228f
0,          5,          5,        1,   301196, 899d3b7f4daca28b8d08fd80b9732332
0,          6,          6,        1,   301204, 9ba8d921eb9345b9b90e5ec690cedbc6
0,          7,          7,        1,   301304, 89d5758e5a4966d28fa3e6811822c9e6
0,          8,          8,        1,   301336, b3f805d45e2cba1f3273fdc30e3d3d9c
0,          9,          9,        1,   301304, 83c9ce5fdf5b20b29fc787ae20c5aa8f
0,         10,         10,        1,   301204, 2cb730d551309ac307b69fb1e0f0bcbb
0,         11,         11,        1,   301172, dc5d09bbd04e7b0a20521e67dbbad5f2
0,         12,         12,        1,   301304, 9e08281b8be73b732b2793f7ffcf3bd4
0,         13,         13,        1,   301224, 430fa7e9cc87e9292811601473bb03f9
0,         14,         14,        1,   301128, 32eab97914c2f165e270e42e3c348ea0
0,         15,         15,        1,   301140, c38233a19e22cc41957cd5a2e13bbca0
0,         16,         16,        1,   301280, b87e1697217b744404d7998ec3dfac80
0,         17,         17,        1,   301332, 231912bca1a1d4b54bc7ad392ca437c5
0,         18,         18,        1,   301452, 30ce746afa3750735872fc9f2680e5b0
0,         19,         19,        1,   301484, 9a56d219bcfb153190d17c8d89a0c5e3
0,         20,         20,        1,   301440, c864010df06930259e712f7029a428b4
0,         21,         21,        1,   301440, 1a4b6bf6557c65d5f088829602440819
0,         22,         22,        1,   301376, f0ce8402bf00fcde4399da2f4088cd9f
0,         23,         23,        1,   301320, 27d296bfd2df72c2fcf790098d2129cd
0,         24,         24,        1,   301388, 0e78fec341c4d137959491e53ab23d92
0,         25,         25,        1,   301404, 1ec3ca66bd6005cb754c00e346cdd895
0,         26,         26,        1,   301348, b78ad47e42cfa510ab92d3ffc99371cf
0,         27,         27,        1,   301492, 558f35abf593bf29a82e6353c75052d2
0,         28,         28,        1,   301412, f44dae5d90ac9907b8847db0966e8d0b
0,         29,         29,        1,   301484, 40d87d4e7c51bc2b3dede754c25e1b7e
0,         30,         30,        1,   301484, 15dda8edd88e97f3db294bce9397e681
0,         31,         31,        1,   301420, ff1dd12c16b295c83098a6b0135bd951
0,         32,         32,        1,   301380, a290b1944381632a50fbb680f3f1af9e
0,         33,         33,        1,   301356, 73d66b8546ac0698975af841dcea7a4c
0,         34,         34,        1,   301260, 408ab0a50a74e7aaf196a202fd781892
0,         35,         35,        1,   301412, bde264649818ed761d74281bf92a871e
0,         36,         36,        1,   301492, c3612f4a8a748ffd6b43ccf24b2db821
0,         37,         37,        1,   301488, 068ec12d90d1236e367caaf87f14da03
0,         38,         38,        1,   301556, 000ee987cce47ab701e743d21a6607e6
0,         39,         39,        1,   301556, 41277aa578fe7367c138a70b532bdf59
0,         40,         40,        1,   301568, ebf086337aedfac24afc5c17715424d2
0,         41,         41,        1,   301528, d8f0c31897748dfc761033f237f31f7f
0,         42,         42,        1,   301604, 50b67f1d579eb8e7c5e0bdc438bf0ee2
0,         43,         43,        1,   301568, 8297516127bb32a4326d6a859b2d8407
0,         44,         44,        1,   301552, 1f9e1272e7249467631c4b9bd88bddcf
0,         45,         45,        1,   301604, d835d90e9fc37583978c053bab5a96ed
0,         46,         46,        1,   301692, fcb67990a58d25bff135fcc970714c4a
0,         47,         47,        1,   301700, a4b0a26ed1626a4e46effa7987a32034
0,         48,         48,        1,   301720, 44d53eab1be166c9bcc4b7b8bc3f80c9
0,         49,         49,        1,   301704, 34314d5b44ea555b7d52958dec489fde
